<svg width="100%" viewBox="0 0 2656 276" role="img" aria-label="Declared denoiser inputs; external components require their own evidence" xmlns="http://www.w3.org/2000/svg"><defs><marker id="uf-s8-demonstration-denoiser_component-0-arrow" viewBox="0 0 10 10" refX="8" refY="5" markerWidth="7" markerHeight="7" orient="auto-start-reverse"><path d="M2 1L8 5L2 9" fill="none" stroke="#0F6E56" stroke-width="1.7" stroke-linecap="round" stroke-linejoin="round"/></marker><filter id="uf-s8-demonstration-denoiser_component-0-shadow" x="-20%" y="-20%" width="140%" height="140%"><feGaussianBlur in="SourceAlpha" stdDeviation="1"/><feOffset dx="0" dy="1" result="off"/><feComponentTransfer><feFuncA type="linear" slope="0.16"/></feComponentTransfer><feMerge><feMergeNode/><feMergeNode in="SourceGraphic"/></feMerge></filter></defs><rect x="16" y="16" width="2624" height="244" rx="18" ry="18" fill="#E1F5EE" stroke="none" stroke-width="0"/><g transform="translate(1328.0,46.0)"><g class="uf-node" data-id="denoiser"><rect x="-120" y="0" width="240" height="56" rx="11" ry="11" fill="#D6F1E4" stroke="#B6DDCB" stroke-width="1" filter="url(#uf-s8-demonstration-denoiser_component-0-shadow)"/><text text-anchor="middle" dominant-baseline="central" fill="#04342C" font-family="&quot;Caveat&quot;,&quot;Patrick Hand&quot;,&quot;Comic Sans MS&quot;,cursive" font-size="17" pointer-events="none" x="0" y="18.5">U-Net</text><text text-anchor="middle" dominant-baseline="central" fill="#04342C" font-family="&quot;Caveat&quot;,&quot;Patrick Hand&quot;,&quot;Comic Sans MS&quot;,cursive" font-size="17" pointer-events="none" x="0" y="37.5">Denoiser</text></g><g class="uf-node" data-id="unet_root_input_0"><rect x="-1282" y="128" width="164" height="56" rx="11" ry="11" fill="#9FE1CB" stroke="#0E5C48" stroke-width="0.6" filter="url(#uf-s8-demonstration-denoiser_component-0-shadow)"/><text text-anchor="middle" dominant-baseline="central" fill="#04342C" font-family="&quot;Caveat&quot;,&quot;Patrick Hand&quot;,&quot;Comic Sans MS&quot;,cursive" font-size="17" pointer-events="none" x="-1200" y="156">sample</text></g><path d="M -1200 128 L -1200 71 Q -1200 68 -1197 68 L -97 68 Q -94 68 -94 65 L -94 62" fill="none" stroke="#0F6E56" stroke-width="1.6" stroke-linecap="round" stroke-linejoin="round" marker-end="url(#uf-s8-demonstration-denoiser_component-0-arrow)"/><g class="uf-node" data-id="unet_root_input_1"><rect x="-1082" y="128" width="164" height="56" rx="11" ry="11" fill="#9FE1CB" stroke="#0E5C48" stroke-width="0.6" filter="url(#uf-s8-demonstration-denoiser_component-0-shadow)"/><text text-anchor="middle" dominant-baseline="central" fill="#04342C" font-family="&quot;Caveat&quot;,&quot;Patrick Hand&quot;,&quot;Comic Sans MS&quot;,cursive" font-size="17" pointer-events="none" x="-1000" y="156">timestep</text></g><path d="M -1000 128 L -1000 83 Q -1000 76 -993 76 L -85.33333333333333 76 Q -78.33333333333333 76 -78.33333333333333 69 L -78.33333333333333 62" fill="none" stroke="#0F6E56" stroke-width="1.6" stroke-linecap="round" stroke-linejoin="round" marker-end="url(#uf-s8-demonstration-denoiser_component-0-arrow)"/><g class="uf-node" data-id="unet_root_input_2"><rect x="-882" y="128" width="164" height="56" rx="11" ry="11" fill="#9FE1CB" stroke="#0E5C48" stroke-width="0.6" filter="url(#uf-s8-demonstration-denoiser_component-0-shadow)"/><text text-anchor="middle" dominant-baseline="central" fill="#04342C" font-family="&quot;Caveat&quot;,&quot;Patrick Hand&quot;,&quot;Comic Sans MS&quot;,cursive" font-size="17" pointer-events="none" x="-800" y="156">encoder_hidden_states</text></g><path d="M -800 128 L -800 94 Q -800 84 -790 84 L -72.66666666666667 84 Q -62.66666666666667 84 -62.66666666666667 74 L -62.66666666666667 62" fill="none" stroke="#0F6E56" stroke-width="1.6" stroke-linecap="round" stroke-linejoin="round" marker-end="url(#uf-s8-demonstration-denoiser_component-0-arrow)"/><g class="uf-node" data-id="unet_root_input_3"><rect x="-682" y="128" width="164" height="56" rx="11" ry="11" fill="#9FE1CB" stroke="#0E5C48" stroke-width="0.6" filter="url(#uf-s8-demonstration-denoiser_component-0-shadow)"/><text text-anchor="middle" dominant-baseline="central" fill="#04342C" font-family="&quot;Caveat&quot;,&quot;Patrick Hand&quot;,&quot;Comic Sans MS&quot;,cursive" font-size="17" pointer-events="none" x="-600" y="156">class_labels</text></g><path d="M -600 128 L -600 102 Q -600 92 -590 92 L -57 92 Q -47 92 -47 82 L -47 62" fill="none" stroke="#0F6E56" stroke-width="1.6" stroke-linecap="round" stroke-linejoin="round" marker-end="url(#uf-s8-demonstration-denoiser_component-0-arrow)"/><g class="uf-node" data-id="unet_root_input_4"><rect x="-482" y="128" width="164" height="56" rx="11" ry="11" fill="#9FE1CB" stroke="#0E5C48" stroke-width="0.6" filter="url(#uf-s8-demonstration-denoiser_component-0-shadow)"/><text text-anchor="middle" dominant-baseline="central" fill="#04342C" font-family="&quot;Caveat&quot;,&quot;Patrick Hand&quot;,&quot;Comic Sans MS&quot;,cursive" font-size="17" pointer-events="none" x="-400" y="156">timestep_cond</text></g><path d="M -400 128 L -400 110 Q -400 100 -390 100 L -41.333333333333336 100 Q -31.333333333333336 100 -31.333333333333336 90 L -31.333333333333336 62" fill="none" stroke="#0F6E56" stroke-width="1.6" stroke-linecap="round" stroke-linejoin="round" marker-end="url(#uf-s8-demonstration-denoiser_component-0-arrow)"/><g class="uf-node" data-id="unet_root_input_5"><rect x="-282" y="128" width="164" height="56" rx="11" ry="11" fill="#9FE1CB" stroke="#0E5C48" stroke-width="0.6" filter="url(#uf-s8-demonstration-denoiser_component-0-shadow)"/><text text-anchor="middle" dominant-baseline="central" fill="#04342C" font-family="&quot;Caveat&quot;,&quot;Patrick Hand&quot;,&quot;Comic Sans MS&quot;,cursive" font-size="17" pointer-events="none" x="-200" y="156">attention_mask</text></g><path d="M -200 128 L -200 118 Q -200 108 -190 108 L -25.66666666666667 108 Q -15.666666666666671 108 -15.666666666666671 98 L -15.666666666666671 62" fill="none" stroke="#0F6E56" stroke-width="1.6" stroke-linecap="round" stroke-linejoin="round" marker-end="url(#uf-s8-demonstration-denoiser_component-0-arrow)"/><g class="uf-node" data-id="unet_root_input_6"><rect x="-82" y="128" width="164" height="56" rx="11" ry="11" fill="#9FE1CB" stroke="#0E5C48" stroke-width="0.6" filter="url(#uf-s8-demonstration-denoiser_component-0-shadow)"/><text text-anchor="middle" dominant-baseline="central" fill="#04342C" font-family="&quot;Caveat&quot;,&quot;Patrick Hand&quot;,&quot;Comic Sans MS&quot;,cursive" font-size="17" pointer-events="none" x="0" y="156">cross_attention_kwargs</text></g><line x1="0" y1="128" x2="0" y2="62" stroke="#0F6E56" stroke-width="1.6" stroke-linecap="round" marker-end="url(#uf-s8-demonstration-denoiser_component-0-arrow)" fill="none"/><g class="uf-node" data-id="unet_root_input_7"><rect x="118" y="128" width="164" height="56" rx="11" ry="11" fill="#9FE1CB" stroke="#0E5C48" stroke-width="0.6" filter="url(#uf-s8-demonstration-denoiser_component-0-shadow)"/><text text-anchor="middle" dominant-baseline="central" fill="#04342C" font-family="&quot;Caveat&quot;,&quot;Patrick Hand&quot;,&quot;Comic Sans MS&quot;,cursive" font-size="17" pointer-events="none" x="200" y="156">added_cond_kwargs</text></g><path d="M 200 128 L 200 118 Q 200 108 190 108 L 25.66666666666667 108 Q 15.666666666666671 108 15.666666666666671 98 L 15.666666666666671 62" fill="none" stroke="#0F6E56" stroke-width="1.6" stroke-linecap="round" stroke-linejoin="round" marker-end="url(#uf-s8-demonstration-denoiser_component-0-arrow)"/><g class="uf-node" data-id="unet_root_input_8"><rect x="318" y="128" width="164" height="56" rx="11" ry="11" fill="#9FE1CB" stroke="#0E5C48" stroke-width="0.6" filter="url(#uf-s8-demonstration-denoiser_component-0-shadow)"/><text text-anchor="middle" dominant-baseline="central" fill="#04342C" font-family="&quot;Caveat&quot;,&quot;Patrick Hand&quot;,&quot;Comic Sans MS&quot;,cursive" font-size="17" pointer-events="none" x="400" y="156">down_block_additional_residuals</text></g><path d="M 400 128 L 400 110 Q 400 100 390 100 L 41.33333333333333 100 Q 31.33333333333333 100 31.33333333333333 90 L 31.33333333333333 62" fill="none" stroke="#0F6E56" stroke-width="1.6" stroke-linecap="round" stroke-linejoin="round" marker-end="url(#uf-s8-demonstration-denoiser_component-0-arrow)"/><g class="uf-node" data-id="unet_root_input_9"><rect x="518" y="128" width="164" height="56" rx="11" ry="11" fill="#9FE1CB" stroke="#0E5C48" stroke-width="0.6" filter="url(#uf-s8-demonstration-denoiser_component-0-shadow)"/><text text-anchor="middle" dominant-baseline="central" fill="#04342C" font-family="&quot;Caveat&quot;,&quot;Patrick Hand&quot;,&quot;Comic Sans MS&quot;,cursive" font-size="17" pointer-events="none" x="600" y="156">mid_block_additional_residual</text></g><path d="M 600 128 L 600 102 Q 600 92 590 92 L 57 92 Q 47 92 47 82 L 47 62" fill="none" stroke="#0F6E56" stroke-width="1.6" stroke-linecap="round" stroke-linejoin="round" marker-end="url(#uf-s8-demonstration-denoiser_component-0-arrow)"/><g class="uf-node" data-id="unet_root_input_10"><rect x="718" y="128" width="164" height="56" rx="11" ry="11" fill="#9FE1CB" stroke="#0E5C48" stroke-width="0.6" filter="url(#uf-s8-demonstration-denoiser_component-0-shadow)"/><text text-anchor="middle" dominant-baseline="central" fill="#04342C" font-family="&quot;Caveat&quot;,&quot;Patrick Hand&quot;,&quot;Comic Sans MS&quot;,cursive" font-size="17" pointer-events="none" x="800" y="156">down_intrablock_additional_residuals</text></g><path d="M 800 128 L 800 94 Q 800 84 790 84 L 72.66666666666666 84 Q 62.66666666666666 84 62.66666666666666 74 L 62.66666666666666 62" fill="none" stroke="#0F6E56" stroke-width="1.6" stroke-linecap="round" stroke-linejoin="round" marker-end="url(#uf-s8-demonstration-denoiser_component-0-arrow)"/><g class="uf-node" data-id="unet_root_input_11"><rect x="918" y="128" width="164" height="56" rx="11" ry="11" fill="#9FE1CB" stroke="#0E5C48" stroke-width="0.6" filter="url(#uf-s8-demonstration-denoiser_component-0-shadow)"/><text text-anchor="middle" dominant-baseline="central" fill="#04342C" font-family="&quot;Caveat&quot;,&quot;Patrick Hand&quot;,&quot;Comic Sans MS&quot;,cursive" font-size="17" pointer-events="none" x="1000" y="156">encoder_attention_mask</text></g><path d="M 1000 128 L 1000 83 Q 1000 76 993 76 L 85.33333333333334 76 Q 78.33333333333334 76 78.33333333333334 69 L 78.33333333333334 62" fill="none" stroke="#0F6E56" stroke-width="1.6" stroke-linecap="round" stroke-linejoin="round" marker-end="url(#uf-s8-demonstration-denoiser_component-0-arrow)"/><g class="uf-node" data-id="unet_root_input_12"><rect x="1118" y="128" width="164" height="56" rx="11" ry="11" fill="#9FE1CB" stroke="#0E5C48" stroke-width="0.6" filter="url(#uf-s8-demonstration-denoiser_component-0-shadow)"/><text text-anchor="middle" dominant-baseline="central" fill="#04342C" font-family="&quot;Caveat&quot;,&quot;Patrick Hand&quot;,&quot;Comic Sans MS&quot;,cursive" font-size="17" pointer-events="none" x="1200" y="156">return_dict</text></g><path d="M 1200 128 L 1200 71 Q 1200 68 1197 68 L 97 68 Q 94 68 94 65 L 94 62" fill="none" stroke="#0F6E56" stroke-width="1.6" stroke-linecap="round" stroke-linejoin="round" marker-end="url(#uf-s8-demonstration-denoiser_component-0-arrow)"/></g></svg>